<?xml version="1.0" encoding="UTF-8"?>
<svg id="Layer_2" data-name="Layer 2" xmlns="http://www.w3.org/2000/svg" xmlns:xlink="http://www.w3.org/1999/xlink" viewBox="0 0 439.79 439.79">
  <defs>
    <style>
      .cls-1 {
        fill: #a8772e;
      }

      .cls-2 {
        fill: none;
      }

      .cls-3 {
        fill: #1c190f;
      }

      @media (prefers-color-scheme: dark) {
        .cls-3 {
          fill: #f4f0e6;
        }
      }

      .cls-4 {
        clip-path: url(#clippath);
      }
</style>
    <clipPath id="clippath">
      <rect class="cls-2" width="439.79" height="439.79"/>
    </clipPath>
  </defs>
  <g id="Layer_1-2" data-name="Layer 1">
    <g class="cls-4">
      <path class="cls-3" d="M109.95,27.49h219.89c5.41,0,10.78.53,16.09,1.58,5.31,1.06,10.47,2.62,15.47,4.69,5,2.07,9.75,4.61,14.26,7.62s8.67,6.43,12.5,10.25c3.83,3.83,7.25,7.99,10.26,12.5,3.01,4.5,5.55,9.25,7.62,14.26s3.64,10.16,4.69,15.47c1.06,5.31,1.58,10.67,1.58,16.09v219.89c0,5.41-.53,10.78-1.58,16.09-1.06,5.31-2.62,10.47-4.69,15.47-2.07,5-4.61,9.76-7.62,14.26-3.01,4.5-6.43,8.67-10.26,12.5-3.83,3.83-7.99,7.25-12.5,10.26-4.5,3.01-9.25,5.55-14.26,7.62-5,2.07-10.16,3.64-15.47,4.69-5.31,1.06-10.67,1.58-16.09,1.59H109.95c-5.41,0-10.78-.53-16.09-1.59-5.31-1.06-10.47-2.62-15.47-4.69-5-2.07-9.75-4.61-14.26-7.62-4.5-3.01-8.67-6.43-12.5-10.26-3.83-3.83-7.25-7.99-10.26-12.5-3.01-4.5-5.55-9.25-7.62-14.26-2.07-5-3.64-10.16-4.69-15.47-1.06-5.31-1.58-10.67-1.58-16.09V109.95c0-5.42.53-10.78,1.58-16.09,1.06-5.31,2.62-10.47,4.69-15.47,2.07-5,4.61-9.75,7.62-14.26,3.01-4.5,6.43-8.67,10.26-12.5,3.83-3.83,7.99-7.25,12.5-10.25,4.5-3.01,9.25-5.55,14.26-7.62,5-2.07,10.16-3.64,15.47-4.69,5.31-1.06,10.67-1.58,16.09-1.58Z"/>
      <path class="cls-1" d="M350.46,178.66c0,5.86-.57,11.67-1.72,17.43-1.14,5.75-2.84,11.34-5.08,16.76-2.24,5.42-5,10.57-8.25,15.45-3.26,4.88-6.96,9.39-11.11,13.54-4.15,4.15-8.66,7.85-13.54,11.11-4.88,3.26-10.03,6.01-15.44,8.25-5.42,2.25-11,3.94-16.76,5.08-5.75,1.14-11.56,1.72-17.43,1.72-5.87,0-11.68-.57-17.43-1.72-5.75-1.14-11.34-2.84-16.76-5.08-5.42-2.25-10.57-5-15.44-8.25s-9.39-6.96-13.54-11.11c-4.15-4.15-7.85-8.66-11.11-13.54-3.26-4.88-6.01-10.03-8.26-15.45s-3.94-11.01-5.08-16.76c-1.14-5.75-1.72-11.56-1.72-17.43,0-5.87.57-11.68,1.72-17.43,1.14-5.75,2.84-11.34,5.08-16.76s5-10.57,8.26-15.44c3.26-4.88,6.96-9.39,11.11-13.54,4.15-4.15,8.66-7.85,13.54-11.11,4.88-3.26,10.03-6.01,15.44-8.25,5.42-2.25,11.01-3.94,16.76-5.08,5.75-1.15,11.56-1.72,17.43-1.72s11.67.57,17.43,1.72c5.75,1.14,11.34,2.84,16.76,5.08,5.42,2.25,10.57,5,15.44,8.25,4.88,3.26,9.39,6.96,13.54,11.11,4.15,4.15,7.85,8.66,11.11,13.54,3.26,4.88,6.01,10.02,8.25,15.44,2.25,5.42,3.94,11.01,5.08,16.76,1.14,5.75,1.72,11.56,1.72,17.43Z"/>
    </g>
  </g>
</svg>